<?xml version="1.0" encoding="utf-8"?>
<!-- Generator: Adobe Illustrator 16.0.0, SVG Export Plug-In . SVG Version: 6.00 Build 0)  -->
<!DOCTYPE svg PUBLIC "-//W3C//DTD SVG 1.1//EN" "http://www.w3.org/Graphics/SVG/1.1/DTD/svg11.dtd">
<svg version="1.1" id="Layer_1" xmlns="http://www.w3.org/2000/svg" xmlns:xlink="http://www.w3.org/1999/xlink" x="0px" y="0px"
	 width="136.833px" height="136.834px" viewBox="0 0 136.833 136.834" style="enable-background:new 0 0 136.833 136.834;"
	 xml:space="preserve">
<style type="text/css">
<![CDATA[
	.st0{fill:#E22928;}
	.st1{fill:#81C241;}
	.st2{fill:#ED3533;}
	.st3{fill:#EFEFEF;}
	.st4{fill:#F0AE1D;}
	.st5{fill:#5E9A42;}
	.st6{fill:#FFC10E;}
	.st7{fill:#FFFFFF;}
	.st8{fill:#CA2027;}
	.st9{fill:#9B1C1F;}
	.st10{fill:#67AF45;}
	.st11{fill:#CCCBCB;}
	.st12{fill:#333333;}
	.st13{fill:#D22327;}
	.st14{fill:#A2D4DE;}
	.st15{fill:#75CDDE;}
]]>
</style>
<g>
	<g>
		<g>
			<circle class="st6" cx="68.416" cy="68.417" r="63.333"/>
		</g>
	</g>
	<g>
		<g>
			<g>
				<path class="st12" d="M66.646,87.783c-9.224,15.511-32.962,10.565-34.578-7.722c-0.281-3.186-5.284-3.213-5,0
					c0.96,10.858,8.18,19.528,18.939,21.873c9.967,2.172,19.898-3.122,24.955-11.627C72.614,87.528,68.291,85.015,66.646,87.783
					L66.646,87.783z"/>
			</g>
		</g>
	</g>
	<g>
		<g>
			<g>
				<path class="st12" d="M110.376,101.156c0.586-11.504-6.554-21.346-17.606-24.503c-10.27-2.934-20.984,2.502-26.243,11.346
					c-1.652,2.778,2.671,5.292,4.316,2.523c10.078-16.948,35.532-8.995,34.533,10.634
					C105.212,104.38,110.213,104.364,110.376,101.156L110.376,101.156z"/>
			</g>
		</g>
	</g>
	<g>
		<circle class="st12" cx="49.172" cy="46.576" r="9.946"/>
	</g>
	<g>
		<circle class="st12" cx="86.776" cy="46.576" r="16.613"/>
	</g>
</g>
</svg>
