<?xml version="1.0" encoding="utf-8"?>
<!-- Generator: Adobe Illustrator 16.0.0, SVG Export Plug-In . SVG Version: 6.00 Build 0)  -->
<!DOCTYPE svg PUBLIC "-//W3C//DTD SVG 1.1//EN" "http://www.w3.org/Graphics/SVG/1.1/DTD/svg11.dtd">
<svg version="1.1" id="Layer_1" xmlns="http://www.w3.org/2000/svg" xmlns:xlink="http://www.w3.org/1999/xlink" x="0px" y="0px"
	 width="136.833px" height="136.834px" viewBox="0 0 136.833 136.834" style="enable-background:new 0 0 136.833 136.834;"
	 xml:space="preserve">
<style type="text/css">
<![CDATA[
	.st0{fill:#E22928;}
	.st1{fill:#81C241;}
	.st2{fill:#ED3533;}
	.st3{fill:#EFEFEF;}
	.st4{fill:#F0AE1D;}
	.st5{fill:#5E9A42;}
	.st6{fill:#FFC10E;}
	.st7{fill:#FFFFFF;}
	.st8{fill:#CA2027;}
	.st9{fill:#9B1C1F;}
	.st10{fill:#67AF45;}
	.st11{fill:#CCCBCB;}
	.st12{fill:#333333;}
	.st13{fill:#D22327;}
	.st14{fill:#A2D4DE;}
	.st15{fill:#75CDDE;}
]]>
</style>
<g>
	<g>
		<g>
			<circle class="st6" cx="68.416" cy="68.418" r="63.333"/>
		</g>
	</g>
	<g>
		<circle class="st12" cx="97.597" cy="94.814" r="6.885"/>
	</g>
	<g>
		<g>
			<g>
				<path class="st12" d="M70.166,35.265c0.45,8.352,6.412,14.314,14.764,14.765c8.334,0.449,14.351-7.089,14.765-14.765
					c0.174-3.224-4.827-3.207-5,0c-0.678,12.586-18.851,12.586-19.528,0C74.993,32.058,69.992,32.041,70.166,35.265L70.166,35.265z"
					/>
			</g>
		</g>
	</g>
	<g>
		<g>
			<g>
				<path class="st12" d="M34.139,35.265c0.45,8.353,6.411,14.314,14.764,14.765c8.334,0.449,14.35-7.089,14.764-14.765
					c0.174-3.224-4.827-3.207-5,0c-0.678,12.586-18.85,12.586-19.527,0C38.966,32.058,33.965,32.041,34.139,35.265L34.139,35.265z"
					/>
			</g>
		</g>
	</g>
</g>
</svg>
