<?xml version="1.0" encoding="utf-8"?>
<!-- Generator: Adobe Illustrator 16.0.0, SVG Export Plug-In . SVG Version: 6.00 Build 0)  -->
<!DOCTYPE svg PUBLIC "-//W3C//DTD SVG 1.1//EN" "http://www.w3.org/Graphics/SVG/1.1/DTD/svg11.dtd">
<svg version="1.1" id="Layer_1" xmlns="http://www.w3.org/2000/svg" xmlns:xlink="http://www.w3.org/1999/xlink" x="0px" y="0px"
	 width="136.833px" height="136.834px" viewBox="0 0 136.833 136.834" style="enable-background:new 0 0 136.833 136.834;"
	 xml:space="preserve">
<style type="text/css">
<![CDATA[
	.st0{fill:#E22928;}
	.st1{fill:#81C241;}
	.st2{fill:#ED3533;}
	.st3{fill:#EFEFEF;}
	.st4{fill:#F0AE1D;}
	.st5{fill:#5E9A42;}
	.st6{fill:#FFC10E;}
	.st7{fill:#FFFFFF;}
	.st8{fill:#CA2027;}
	.st9{fill:#9B1C1F;}
	.st10{fill:#67AF45;}
	.st11{fill:#CCCBCB;}
	.st12{fill:#333333;}
	.st13{fill:#D22327;}
	.st14{fill:#A2D4DE;}
	.st15{fill:#75CDDE;}
]]>
</style>
<g>
	<g>
		<g>
			<circle class="st6" cx="68.417" cy="68.417" r="63.333"/>
		</g>
	</g>
	<g>
		<g>
			<path class="st15" d="M103.047,79.464c-3.529,0-6.878-2.089-8.315-5.551c-2.97-7.153-6.662-13.297-10.677-17.768
				c-3.321-3.698-3.016-9.389,0.682-12.71s9.388-3.017,12.709,0.683c5.435,6.052,10.115,13.754,13.909,22.893
				c1.906,4.591-0.27,9.857-4.861,11.763C105.366,79.242,104.197,79.464,103.047,79.464z"/>
		</g>
	</g>
	<g>
		<g>
			<path class="st15" d="M35.414,79.464c-1.15,0-2.319-0.222-3.448-0.69c-4.591-1.905-6.767-7.172-4.861-11.763
				c3.794-9.139,8.474-16.841,13.909-22.893c3.321-3.697,9.011-4.004,12.709-0.683s4.003,9.012,0.682,12.71
				c-4.015,4.471-7.707,10.614-10.677,17.768C42.292,77.375,38.942,79.464,35.414,79.464z"/>
		</g>
	</g>
	<g>
		<circle class="st12" cx="49.173" cy="46.575" r="9.946"/>
	</g>
	<g>
		<circle class="st12" cx="86.777" cy="46.575" r="9.946"/>
	</g>
</g>
<g>
	<path class="st12" d="M84.299,85.807c0,11.707-7.101,21.205-15.863,21.205s-15.863-9.498-15.863-21.205
		c0-11.713,7.101-21.206,15.863-21.206S84.299,74.094,84.299,85.807z"/>
</g>
</svg>
