<?xml version="1.0" encoding="utf-8"?>
<!-- Generator: Adobe Illustrator 16.0.0, SVG Export Plug-In . SVG Version: 6.00 Build 0)  -->
<!DOCTYPE svg PUBLIC "-//W3C//DTD SVG 1.1//EN" "http://www.w3.org/Graphics/SVG/1.1/DTD/svg11.dtd">
<svg version="1.1" id="Layer_1" xmlns="http://www.w3.org/2000/svg" xmlns:xlink="http://www.w3.org/1999/xlink" x="0px" y="0px"
	 width="136.833px" height="136.834px" viewBox="0 0 136.833 136.834" style="enable-background:new 0 0 136.833 136.834;"
	 xml:space="preserve">
<style type="text/css">
<![CDATA[
	.st0{fill:#E22928;}
	.st1{fill:#81C241;}
	.st2{fill:#ED3533;}
	.st3{fill:#EFEFEF;}
	.st4{fill:#F0AE1D;}
	.st5{fill:#5E9A42;}
	.st6{fill:#FFC10E;}
	.st7{fill:#FFFFFF;}
	.st8{fill:#CA2027;}
	.st9{fill:#9B1C1F;}
	.st10{fill:#67AF45;}
	.st11{fill:#CCCBCB;}
	.st12{fill:#333333;}
	.st13{fill:#D22327;}
	.st14{fill:#A2D4DE;}
	.st15{fill:#75CDDE;}
]]>
</style>
<g>
	<g>
		<g>
			<circle class="st6" cx="68.417" cy="68.417" r="63.333"/>
		</g>
	</g>
	<g>
		<g>
			<g>
				<path class="st12" d="M105.093,51.318c-4.49-9.51-15.322-13.862-25.137-10.046c-2.971,1.156-1.68,5.992,1.329,4.822
					c7.89-3.068,15.867,0.074,19.49,7.747C102.151,56.756,106.461,54.217,105.093,51.318L105.093,51.318z"/>
			</g>
		</g>
	</g>
	<g>
		<g>
			<g>
				<path class="st12" d="M37.76,53.818c3.623-7.673,11.6-10.816,19.49-7.747c3.009,1.17,4.3-3.666,1.329-4.822
					c-9.815-3.817-20.646,0.536-25.137,10.046C32.074,54.193,36.384,56.732,37.76,53.818L37.76,53.818z"/>
			</g>
		</g>
	</g>
	<g>
		<path class="st12" d="M80.765,82.01c0,10.685-5.528,19.345-12.348,19.345c-6.818,0-12.348-8.66-12.348-19.345
			c0-10.68,5.53-19.345,12.348-19.345C75.237,62.665,80.765,71.33,80.765,82.01z"/>
	</g>
</g>
</svg>
