<?xml version="1.0" encoding="utf-8"?>
<!-- Generator: Adobe Illustrator 16.0.0, SVG Export Plug-In . SVG Version: 6.00 Build 0)  -->
<!DOCTYPE svg PUBLIC "-//W3C//DTD SVG 1.1//EN" "http://www.w3.org/Graphics/SVG/1.1/DTD/svg11.dtd">
<svg version="1.1" id="Layer_1" xmlns="http://www.w3.org/2000/svg" xmlns:xlink="http://www.w3.org/1999/xlink" x="0px" y="0px"
	 width="136.833px" height="136.833px" viewBox="0 0 136.833 136.833" style="enable-background:new 0 0 136.833 136.833;"
	 xml:space="preserve">
<style type="text/css">
<![CDATA[
	.st0{fill:#E22928;}
	.st1{fill:#81C241;}
	.st2{fill:#ED3533;}
	.st3{fill:#EFEFEF;}
	.st4{fill:#F0AE1D;}
	.st5{fill:#5E9A42;}
	.st6{fill:#FFC10E;}
	.st7{fill:#FFFFFF;}
	.st8{fill:#CA2027;}
	.st9{fill:#9B1C1F;}
	.st10{fill:#67AF45;}
	.st11{fill:#CCCBCB;}
	.st12{fill:#333333;}
	.st13{fill:#D22327;}
	.st14{fill:#A2D4DE;}
	.st15{fill:#75CDDE;}
]]>
</style>
<g>
	<g>
		<g>
			<circle class="st6" cx="68.417" cy="68.417" r="63.333"/>
		</g>
	</g>
	<g>
		<g>
			<g>
				<path class="st12" d="M100.584,99.911c-17.661-18.251-46.679-18.25-64.339,0.002c-2.242,2.316,1.29,5.856,3.535,3.535
					c15.805-16.334,41.463-16.335,57.269-0.002C99.294,105.766,102.827,102.227,100.584,99.911L100.584,99.911z"/>
			</g>
		</g>
	</g>
	<g>
		<circle class="st12" cx="49.173" cy="56.576" r="9.946"/>
	</g>
	<g>
		<circle class="st12" cx="86.777" cy="56.576" r="9.946"/>
	</g>
	<g>
		<g>
			<path class="st12" d="M89.639,23.367c-7.664,7.663-15.327,15.327-22.99,22.99c1.178,0,2.357,0,3.535,0
				c-7.663-7.664-15.326-15.327-22.989-22.99c-2.282-2.282-5.817,1.253-3.535,3.535c7.663,7.664,15.326,15.327,22.989,22.99
				c0.963,0.963,2.572,0.963,3.535,0c7.664-7.663,15.327-15.327,22.99-22.99C95.456,24.62,91.92,21.084,89.639,23.367L89.639,23.367
				z"/>
		</g>
	</g>
</g>
</svg>
