<?xml version="1.0" encoding="utf-8"?>
<!-- Generator: Adobe Illustrator 16.0.0, SVG Export Plug-In . SVG Version: 6.00 Build 0)  -->
<!DOCTYPE svg PUBLIC "-//W3C//DTD SVG 1.1//EN" "http://www.w3.org/Graphics/SVG/1.1/DTD/svg11.dtd">
<svg version="1.1" id="Layer_1" xmlns="http://www.w3.org/2000/svg" xmlns:xlink="http://www.w3.org/1999/xlink" x="0px" y="0px"
	 width="136.833px" height="136.834px" viewBox="0 0 136.833 136.834" style="enable-background:new 0 0 136.833 136.834;"
	 xml:space="preserve">
<style type="text/css">
<![CDATA[
	.st0{fill:#E22928;}
	.st1{fill:#81C241;}
	.st2{fill:#ED3533;}
	.st3{fill:#EFEFEF;}
	.st4{fill:#F0AE1D;}
	.st5{fill:#5E9A42;}
	.st6{fill:#FFC10E;}
	.st7{fill:#FFFFFF;}
	.st8{fill:#CA2027;}
	.st9{fill:#9B1C1F;}
	.st10{fill:#67AF45;}
	.st11{fill:#CCCBCB;}
	.st12{fill:#333333;}
	.st13{fill:#D22327;}
	.st14{fill:#A2D4DE;}
	.st15{fill:#75CDDE;}
]]>
</style>
<g>
	<g>
		<g>
			<g>
				<circle class="st6" cx="68.416" cy="68.417" r="63.333"/>
			</g>
		</g>
		<g>
			<circle class="st12" cx="49.172" cy="46.575" r="9.946"/>
		</g>
		<g>
			<circle class="st12" cx="86.775" cy="46.575" r="9.946"/>
		</g>
	</g>
	<g>
		<g>
			<path class="st3" d="M101.589,89.685c1.912,0.743,2.858,2.896,2.114,4.808l-2.692,6.923c-0.743,1.912-2.896,2.859-4.808,2.115
				l-60.96-23.714c-1.912-0.743-2.859-2.896-2.115-4.809l2.693-6.922c0.743-1.912,2.896-2.858,4.808-2.115L101.589,89.685z"/>
		</g>
		<g>
			<path class="st7" d="M95.361,64.782c1.878-0.826,4.069,0.026,4.896,1.904l2.99,6.8c0.826,1.877-0.025,4.069-1.903,4.895
				l-59.873,26.338c-1.878,0.826-4.07-0.027-4.896-1.905l-2.991-6.799c-0.826-1.877,0.027-4.069,1.904-4.896L95.361,64.782z"/>
		</g>
	</g>
</g>
</svg>
