<?xml version="1.0" standalone="no"?>
<!DOCTYPE svg PUBLIC "-//W3C//DTD SVG 20010904//EN"
 "http://www.w3.org/TR/2001/REC-SVG-20010904/DTD/svg10.dtd">
<svg version="1.0" xmlns="http://www.w3.org/2000/svg"
 width="2276.000000pt" height="2276.000000pt" viewBox="0 0 2276.000000 2276.000000"
 preserveAspectRatio="xMidYMid meet">
<metadata>
Created by potrace 1.11, written by Peter Selinger 2001-2013
</metadata>
<g transform="translate(0.000000,2276.000000) scale(0.100000,-0.100000)"
fill="#000000" stroke="none">
<path d="M5415 21209 c-1170 -102 -2188 -898 -2570 -2010 -375 -1089 -98
-2286 715 -3099 813 -813 2010 -1090 3099 -715 867 298 1558 989 1856 1856
375 1089 98 2286 -715 3099 -629 629 -1498 945 -2385 869z"/>
<path d="M11815 21209 c-1170 -102 -2188 -898 -2570 -2010 -375 -1089 -98
-2286 715 -3099 813 -813 2010 -1090 3099 -715 867 298 1558 989 1856 1856
375 1089 98 2286 -715 3099 -629 629 -1498 945 -2385 869z"/>
<path d="M20200 13740 l-2155 -1237 0 -2443 0 -2443 2155 -1317 2155 -1317 3
2499 c1 1374 1 3622 0 4997 l-3 2498 -2155 -1237z"/>
<path d="M1450 14814 c-190 -28 -313 -65 -453 -136 -323 -166 -547 -455 -619
-799 -11 -53 -13 -788 -13 -4169 0 -3961 1 -4108 19 -4184 52 -224 159 -410
328 -572 164 -157 348 -255 598 -317 l85 -21 3002 -6 3002 -5 -666 -1523
c-365 -838 -663 -1525 -661 -1527 1 -2 864 685 1917 1526 l1915 1529 3030 3
3031 3 85 21 c248 62 435 161 598 317 169 162 276 348 328 572 18 76 19 223
19 4184 0 3381 -2 4116 -13 4169 -72 344 -296 634 -619 799 -100 50 -203 88
-328 119 -66 16 -476 17 -7315 19 -3985 1 -7256 0 -7270 -2z m7366 -2288 c194
-52 314 -216 314 -431 0 -210 -125 -367 -329 -415 -77 -18 -223 -9 -284 18
-207 91 -306 320 -237 544 44 143 178 264 320 291 53 10 168 6 216 -7z m-6836
-1 c0 -3 164 -704 364 -1558 442 -1885 544 -2336 642 -2862 28 -154 39 -186
48 -144 2 13 25 130 51 259 91 466 136 644 726 2875 198 748 364 1377 370
1398 l10 37 366 -2 366 -3 333 -1390 c506 -2109 592 -2496 675 -3037 13 -82
26 -148 30 -148 3 0 12 28 18 63 107 554 284 1278 777 3162 184 704 340 1297
345 1318 l10 37 354 0 c237 0 355 -3 355 -10 0 -8 -1407 -4979 -1502 -5308
l-21 -72 -366 2 -365 3 -313 1290 c-411 1696 -475 1966 -534 2239 -59 276
-129 654 -160 866 -12 85 -24 157 -26 159 -8 11 -16 -21 -63 -265 -81 -407
-169 -780 -279 -1179 -135 -489 -851 -3107 -851 -3111 0 -2 -165 -3 -367 -2
l-367 3 -676 2665 c-372 1466 -680 2677 -684 2693 l-6 27 370 0 c203 0 370 -2
370 -5z m9650 -1439 c142 -18 276 -46 400 -87 112 -36 310 -128 310 -143 0
-13 -159 -478 -169 -495 -6 -9 -24 -3 -69 24 -79 46 -235 108 -337 134 -365
94 -690 55 -872 -104 -209 -183 -227 -507 -39 -699 102 -105 227 -172 581
-316 132 -53 272 -114 312 -134 529 -266 755 -609 730 -1110 -14 -279 -115
-515 -302 -701 -274 -275 -697 -409 -1230 -392 -352 12 -656 82 -917 213 -49
24 -88 47 -88 51 0 3 39 124 86 268 l86 261 142 -71 c306 -155 636 -225 914
-197 147 15 215 33 322 84 106 51 212 152 254 241 100 214 62 469 -96 633
-108 113 -268 203 -543 309 -217 83 -346 142 -468 215 -374 223 -567 504 -584
851 -27 560 365 1021 975 1144 178 36 407 44 602 21z m3533 -1 c456 -60 797
-272 1039 -645 144 -221 245 -503 295 -821 19 -125 24 -528 7 -624 l-9 -50
-1363 -3 -1363 -2 5 -48 c3 -26 8 -81 11 -122 45 -551 366 -959 867 -1104 165
-48 286 -59 563 -53 342 7 554 43 815 137 63 23 122 44 131 47 14 4 24 -27 64
-194 26 -109 53 -222 60 -250 l13 -53 -46 -21 c-86 -38 -306 -107 -427 -134
-331 -74 -759 -104 -1061 -74 -722 70 -1266 461 -1514 1088 -51 129 -103 328
-127 486 -25 167 -25 570 0 740 43 286 112 513 229 745 95 189 180 310 318
453 139 145 282 251 445 332 191 95 376 150 578 174 119 14 349 12 470 -4z
m-6113 -2010 l0 -1935 -355 0 -355 0 0 1935 0 1935 355 0 355 0 0 -1935z"/>
<path d="M14640 10571 c-414 -90 -729 -462 -835 -986 -14 -67 -25 -125 -25
-129 0 -3 464 -6 1030 -6 l1030 0 0 54 c0 86 -27 272 -55 376 -31 116 -116
291 -186 384 -103 135 -278 250 -454 297 -115 31 -384 36 -505 10z"/>
</g>
</svg>
