<?xml version="1.0" encoding="utf-8"?>
<!-- Generator: Adobe Illustrator 16.0.0, SVG Export Plug-In . SVG Version: 6.00 Build 0)  -->
<!DOCTYPE svg PUBLIC "-//W3C//DTD SVG 1.1//EN" "http://www.w3.org/Graphics/SVG/1.1/DTD/svg11.dtd">
<svg version="1.1" id="Layer_1" xmlns="http://www.w3.org/2000/svg" xmlns:xlink="http://www.w3.org/1999/xlink" x="0px" y="0px"
	 width="136.833px" height="136.834px" viewBox="0 0 136.833 136.834" style="enable-background:new 0 0 136.833 136.834;"
	 xml:space="preserve">
<style type="text/css">
<![CDATA[
	.st0{fill:#E22928;}
	.st1{fill:#81C241;}
	.st2{fill:#ED3533;}
	.st3{fill:#EFEFEF;}
	.st4{fill:#F0AE1D;}
	.st5{fill:#5E9A42;}
	.st6{fill:#FFC10E;}
	.st7{fill:#FFFFFF;}
	.st8{fill:#CA2027;}
	.st9{fill:#9B1C1F;}
	.st10{fill:#67AF45;}
	.st11{fill:#CCCBCB;}
	.st12{fill:#333333;}
	.st13{fill:#D22327;}
	.st14{fill:#A2D4DE;}
	.st15{fill:#75CDDE;}
]]>
</style>
<g>
	<g>
		<g>
			<circle class="st6" cx="68.416" cy="68.418" r="63.333"/>
		</g>
	</g>
	<g>
		<g>
			<path class="st12" d="M33.655,28.071c6.719,5.029,13.438,10.059,20.157,15.088c2.584,1.934,5.072-2.41,2.523-4.317
				c-6.719-5.029-13.438-10.059-20.157-15.088C33.595,21.819,31.106,26.163,33.655,28.071L33.655,28.071z"/>
		</g>
	</g>
	<g>
		<g>
			<path class="st12" d="M100.312,23.753c-6.719,5.029-13.438,10.059-20.157,15.088c-2.549,1.908-0.061,6.251,2.523,4.317
				c6.719-5.029,13.438-10.059,20.157-15.088C105.384,26.163,102.896,21.819,100.312,23.753L100.312,23.753z"/>
		</g>
	</g>
	<g>
		<circle class="st12" cx="49.172" cy="46.576" r="9.946"/>
	</g>
	<g>
		<circle class="st12" cx="86.775" cy="46.576" r="9.946"/>
	</g>
	<g>
		<g>
			<g>
				<path class="st7" d="M109.991,106.037c0-22.96-18.613-41.574-41.574-41.574s-41.574,18.614-41.574,41.574H109.991z"/>
			</g>
		</g>
		<g>
			<path class="st11" d="M86.917,106.037c0-12.41,0-24.82,0-37.23c-1.609-0.802-3.279-1.499-5-2.09c0,13.107,0,26.214,0,39.32
				H86.917z"/>
		</g>
		<g>
			<path class="st11" d="M56.026,106.037c0-13.231,0-26.463,0-39.695c-1.719,0.536-3.385,1.19-5,1.936c0,12.587,0,25.173,0,37.76
				H56.026z"/>
		</g>
	</g>
</g>
</svg>
