<?xml version="1.0" encoding="utf-8"?>
<!-- Generator: Adobe Illustrator 16.0.0, SVG Export Plug-In . SVG Version: 6.00 Build 0)  -->
<!DOCTYPE svg PUBLIC "-//W3C//DTD SVG 1.1//EN" "http://www.w3.org/Graphics/SVG/1.1/DTD/svg11.dtd">
<svg version="1.1" id="Layer_1" xmlns="http://www.w3.org/2000/svg" xmlns:xlink="http://www.w3.org/1999/xlink" x="0px" y="0px"
	 width="136.833px" height="136.833px" viewBox="0 0 136.833 136.833" style="enable-background:new 0 0 136.833 136.833;"
	 xml:space="preserve">
<style type="text/css">
<![CDATA[
	.st0{fill:#E22928;}
	.st1{fill:#81C241;}
	.st2{fill:#ED3533;}
	.st3{fill:#EFEFEF;}
	.st4{fill:#F0AE1D;}
	.st5{fill:#5E9A42;}
	.st6{fill:#FFC10E;}
	.st7{fill:#FFFFFF;}
	.st8{fill:#CA2027;}
	.st9{fill:#9B1C1F;}
	.st10{fill:#67AF45;}
	.st11{fill:#CCCBCB;}
	.st12{fill:#333333;}
	.st13{fill:#D22327;}
	.st14{fill:#A2D4DE;}
	.st15{fill:#75CDDE;}
]]>
</style>
<g>
	<g>
		<g>
			<circle class="st6" cx="68.417" cy="68.417" r="63.333"/>
		</g>
	</g>
	<g>
		<circle class="st12" cx="49.173" cy="56.576" r="9.946"/>
	</g>
	<g>
		<circle class="st12" cx="86.776" cy="56.576" r="9.946"/>
	</g>
	<g>
		<g>
			<path class="st12" d="M90.145,32.165c-7.663,3.396-15.327,6.793-22.99,10.189c0.841,0,1.683,0,2.523,0
				c-7.663-3.396-15.325-6.793-22.988-10.189c-2.92-1.294-5.466,3.013-2.523,4.317c4.134,1.832,8.267,3.665,12.4,5.497
				c2.653,1.176,5.307,2.352,7.96,3.528c1.078,0.478,2.662,1.506,3.89,1.506s2.812-1.028,3.89-1.506
				c2.653-1.176,5.307-2.352,7.961-3.528c4.134-1.832,8.268-3.665,12.401-5.497C95.61,35.178,93.064,30.871,90.145,32.165
				L90.145,32.165z"/>
		</g>
	</g>
	<g>
		<g>
			<path class="st12" d="M33.217,92.443c23.087,0,46.175,0,69.262,0c3.225,0,3.225-5,0-5c-23.087,0-46.175,0-69.262,0
				C29.992,87.443,29.992,92.443,33.217,92.443L33.217,92.443z"/>
		</g>
	</g>
</g>
</svg>
