<?xml version="1.0" encoding="utf-8"?>
<!-- Generator: Adobe Illustrator 16.0.0, SVG Export Plug-In . SVG Version: 6.00 Build 0)  -->
<!DOCTYPE svg PUBLIC "-//W3C//DTD SVG 1.1//EN" "http://www.w3.org/Graphics/SVG/1.1/DTD/svg11.dtd">
<svg version="1.1" id="Layer_1" xmlns="http://www.w3.org/2000/svg" xmlns:xlink="http://www.w3.org/1999/xlink" x="0px" y="0px"
	 width="136.833px" height="136.833px" viewBox="0 0 136.833 136.833" style="enable-background:new 0 0 136.833 136.833;"
	 xml:space="preserve">
<style type="text/css">
<![CDATA[
	.st0{fill:#E22928;}
	.st1{fill:#81C241;}
	.st2{fill:#ED3533;}
	.st3{fill:#EFEFEF;}
	.st4{fill:#F0AE1D;}
	.st5{fill:#5E9A42;}
	.st6{fill:#FFC10E;}
	.st7{fill:#FFFFFF;}
	.st8{fill:#CA2027;}
	.st9{fill:#9B1C1F;}
	.st10{fill:#67AF45;}
	.st11{fill:#CCCBCB;}
	.st12{fill:#333333;}
	.st13{fill:#D22327;}
	.st14{fill:#A2D4DE;}
	.st15{fill:#75CDDE;}
]]>
</style>
<g>
	<g>
		<g>
			<circle class="st6" cx="68.417" cy="68.417" r="63.333"/>
		</g>
	</g>
	<g>
		<g>
			<g>
				<path class="st12" d="M100.671,100.003c-17.64-18.339-46.732-18.377-64.425-0.091c-2.242,2.316,1.29,5.856,3.535,3.535
					c15.839-16.369,41.563-16.326,57.355,0.091C99.375,105.867,102.906,102.327,100.671,100.003L100.671,100.003z"/>
			</g>
		</g>
	</g>
	<g>
		<g>
			<g>
				<path class="st15" d="M36.33,38.456c-5.235,5.6-9.614,11.98-13.072,18.811c-3.693,7.295-1.983,16.208,5.381,20.523
					c6.73,3.942,16.833,1.908,20.523-5.382c1.35-2.666,2.814-5.252,4.433-7.765c0.761-1.18,1.586-2.316,2.423-3.442
					c-2.581,3.473,0.848-0.809,1.524-1.532c5.58-5.968,5.925-15.289,0-21.213C51.909,32.822,41.913,32.482,36.33,38.456
					L36.33,38.456z"/>
			</g>
		</g>
		<g>
			<g>
				<path class="st15" d="M115.996,62.891c-3.646-8.594-8.474-16.336-14.639-23.365c-5.394-6.151-15.717-5.496-21.213,0
					c-6.062,6.062-5.386,15.072,0,21.213c0.534,0.595,1.054,1.203,1.561,1.822c-1.076-1.435-1.105-1.463-0.089-0.085
					c1.02,1.393,1.938,2.857,2.843,4.325c2.202,3.568,3.998,7.377,5.632,11.232c3.196,7.533,14.154,9.111,20.523,5.381
					C118.331,78.893,119.188,70.418,115.996,62.891L115.996,62.891z"/>
			</g>
		</g>
	</g>
	<g>
		<circle class="st12" cx="49.173" cy="46.576" r="9.946"/>
	</g>
	<g>
		<circle class="st12" cx="86.777" cy="46.576" r="9.946"/>
	</g>
</g>
</svg>
