<?xml version="1.0" encoding="utf-8"?>
<!-- Generator: Adobe Illustrator 16.0.0, SVG Export Plug-In . SVG Version: 6.00 Build 0)  -->
<!DOCTYPE svg PUBLIC "-//W3C//DTD SVG 1.1//EN" "http://www.w3.org/Graphics/SVG/1.1/DTD/svg11.dtd">
<svg version="1.1" id="Layer_1" xmlns="http://www.w3.org/2000/svg" xmlns:xlink="http://www.w3.org/1999/xlink" x="0px" y="0px"
	 width="136.833px" height="136.834px" viewBox="0 0 136.833 136.834" style="enable-background:new 0 0 136.833 136.834;"
	 xml:space="preserve">
<style type="text/css">
<![CDATA[
	.st0{fill:#E22928;}
	.st1{fill:#81C241;}
	.st2{fill:#ED3533;}
	.st3{fill:#EFEFEF;}
	.st4{fill:#F0AE1D;}
	.st5{fill:#5E9A42;}
	.st6{fill:#FFC10E;}
	.st7{fill:#FFFFFF;}
	.st8{fill:#CA2027;}
	.st9{fill:#9B1C1F;}
	.st10{fill:#67AF45;}
	.st11{fill:#CCCBCB;}
	.st12{fill:#333333;}
	.st13{fill:#D22327;}
	.st14{fill:#A2D4DE;}
	.st15{fill:#75CDDE;}
]]>
</style>
<g>
	<g>
		<g>
			<circle class="st6" cx="68.417" cy="68.417" r="63.333"/>
		</g>
	</g>
	<g>
		<circle class="st12" cx="49.173" cy="45.979" r="9.946"/>
	</g>
	<g>
		<circle class="st12" cx="86.776" cy="45.979" r="9.946"/>
	</g>
	<g>
		<g>
			<g>
				<path class="st12" d="M68.416,102.017c-11.053-0.213-20.95-4.542-28.635-12.484c-2.245-2.321-5.777,1.219-3.535,3.535
					c8.584,8.872,19.835,13.712,32.17,13.949C71.643,107.079,71.636,102.078,68.416,102.017L68.416,102.017z"/>
			</g>
		</g>
	</g>
	<g>
		<g>
			<g>
				<path class="st12" d="M37.241,33.404c5.336-4.479,11.467-7.367,18.277-8.778c3.156-0.654,1.816-5.474-1.33-4.822
					c-7.676,1.591-14.49,5.034-20.482,10.065C31.233,31.944,34.79,35.463,37.241,33.404L37.241,33.404z"/>
			</g>
		</g>
	</g>
	<g>
		<g>
			<g>
				<path class="st12" d="M82.882,23.304c6.647,2.083,12.406,5.646,17.252,10.646c2.247,2.319,5.779-1.22,3.535-3.535
					c-5.436-5.609-12.01-9.599-19.457-11.934C81.126,17.515,79.816,22.342,82.882,23.304L82.882,23.304z"/>
			</g>
		</g>
	</g>
</g>
</svg>
