<?xml version="1.0" encoding="utf-8"?>
<!-- Generator: Adobe Illustrator 16.0.0, SVG Export Plug-In . SVG Version: 6.00 Build 0)  -->
<!DOCTYPE svg PUBLIC "-//W3C//DTD SVG 1.1//EN" "http://www.w3.org/Graphics/SVG/1.1/DTD/svg11.dtd">
<svg version="1.1" id="Layer_1" xmlns="http://www.w3.org/2000/svg" xmlns:xlink="http://www.w3.org/1999/xlink" x="0px" y="0px"
	 width="136.833px" height="136.834px" viewBox="0 0 136.833 136.834" style="enable-background:new 0 0 136.833 136.834;"
	 xml:space="preserve">
<style type="text/css">
<![CDATA[
	.st0{fill:#E22928;}
	.st1{fill:#81C241;}
	.st2{fill:#ED3533;}
	.st3{fill:#EFEFEF;}
	.st4{fill:#F0AE1D;}
	.st5{fill:#5E9A42;}
	.st6{fill:#FFC10E;}
	.st7{fill:#FFFFFF;}
	.st8{fill:#CA2027;}
	.st9{fill:#9B1C1F;}
	.st10{fill:#67AF45;}
	.st11{fill:#CCCBCB;}
	.st12{fill:#333333;}
	.st13{fill:#D22327;}
	.st14{fill:#A2D4DE;}
	.st15{fill:#75CDDE;}
]]>
</style>
<g>
	<g>
		<g>
			<circle class="st6" cx="68.417" cy="68.417" r="63.333"/>
		</g>
	</g>
	<g>
		<path class="st2" d="M53.765,34.48c-3.777,0-7.286,1.842-9.395,4.926l-0.435,0.553l-0.291-0.371
			c-2.085-3.197-5.6-5.107-9.416-5.107c-6.511,0-11.236,4.726-11.236,11.235c0,9.611,17.4,23.777,18.669,24.797
			c0.599,0.573,1.383,0.888,2.215,0.888s1.616-0.314,2.215-0.889C47.364,69.484,65,55.096,65,45.716
			C65,39.206,60.275,34.48,53.765,34.48z"/>
	</g>
	<g>
		<path class="st2" d="M103.091,34.48c-3.777,0-7.286,1.842-9.395,4.926l-0.435,0.553l-0.291-0.371
			c-2.085-3.197-5.6-5.107-9.416-5.107c-6.511,0-11.236,4.726-11.236,11.235c0,9.611,17.4,23.777,18.669,24.797
			c0.599,0.573,1.383,0.888,2.215,0.888c0.831,0,1.615-0.314,2.215-0.889c1.272-1.027,18.908-15.416,18.908-24.796
			C114.326,39.206,109.601,34.48,103.091,34.48z"/>
	</g>
	<g>
		<g>
			<g>
				<path class="st12" d="M96.826,89.772c-15.843,16.122-41.334,15.996-57.045-0.24c-2.245-2.32-5.777,1.219-3.535,3.535
					c17.577,18.165,46.407,18.262,64.115,0.24C102.622,91.007,99.088,87.47,96.826,89.772L96.826,89.772z"/>
			</g>
		</g>
	</g>
</g>
</svg>
