<?xml version="1.0" encoding="utf-8"?>
<!-- Generator: Adobe Illustrator 16.0.0, SVG Export Plug-In . SVG Version: 6.00 Build 0)  -->
<!DOCTYPE svg PUBLIC "-//W3C//DTD SVG 1.1//EN" "http://www.w3.org/Graphics/SVG/1.1/DTD/svg11.dtd">
<svg version="1.1" id="Layer_1" xmlns="http://www.w3.org/2000/svg" xmlns:xlink="http://www.w3.org/1999/xlink" x="0px" y="0px"
	 width="136.833px" height="136.834px" viewBox="0 0 136.833 136.834" style="enable-background:new 0 0 136.833 136.834;"
	 xml:space="preserve">
<style type="text/css">
<![CDATA[
	.st0{fill:#E22928;}
	.st1{fill:#81C241;}
	.st2{fill:#ED3533;}
	.st3{fill:#EFEFEF;}
	.st4{fill:#F0AE1D;}
	.st5{fill:#5E9A42;}
	.st6{fill:#FFC10E;}
	.st7{fill:#FFFFFF;}
	.st8{fill:#CA2027;}
	.st9{fill:#9B1C1F;}
	.st10{fill:#67AF45;}
	.st11{fill:#CCCBCB;}
	.st12{fill:#333333;}
	.st13{fill:#D22327;}
	.st14{fill:#A2D4DE;}
	.st15{fill:#75CDDE;}
]]>
</style>
<g>
	<g>
		<g>
			<circle class="st6" cx="68.416" cy="68.417" r="63.333"/>
		</g>
	</g>
	<g>
		<g>
			<path class="st12" d="M62.12,46.576c-0.711,16.701-25.182,16.701-25.893,0c-0.31-7.277,6.126-12.656,12.944-12.946
				C56.45,33.32,61.83,39.756,62.12,46.576c0.137,3.212,5.137,3.225,5,0c-0.429-10.075-7.874-17.518-17.948-17.946
				c-10.062-0.428-17.543,8.517-17.944,17.946C30.8,56.636,39.743,64.121,49.172,64.522c10.063,0.428,17.547-8.516,17.948-17.946
				C67.257,43.351,62.257,43.364,62.12,46.576z"/>
		</g>
	</g>
	<g>
		<g>
			<path class="st12" d="M99.62,46.576c-0.711,16.701-25.182,16.701-25.893,0c-0.31-7.277,6.126-12.656,12.944-12.946
				C93.95,33.32,99.33,39.756,99.62,46.576c0.137,3.212,5.137,3.225,5,0c-0.429-10.075-7.874-17.518-17.948-17.946
				c-10.062-0.428-17.543,8.517-17.944,17.946C68.3,56.636,77.243,64.121,86.672,64.522c10.063,0.428,17.547-8.516,17.948-17.946
				C104.757,43.351,99.757,43.364,99.62,46.576z"/>
		</g>
	</g>
	<g>
		<g>
			<g>
				<path class="st12" d="M96.825,89.772c-15.843,16.125-41.333,15.995-57.045-0.24c-2.245-2.321-5.777,1.219-3.535,3.535
					c17.577,18.164,46.406,18.265,64.115,0.24C102.621,91.006,99.088,87.469,96.825,89.772L96.825,89.772z"/>
			</g>
		</g>
	</g>
	<g>
		<g>
			<path class="st12" d="M33.063,44.165c-6.981,1.333-16.655,2.665-24.651,3.997c-0.587,1.74-1.103,3.511-1.539,5.315
				c8.442-1.497,19.676-2.994,27.521-4.491C37.558,48.382,36.213,43.564,33.063,44.165z"/>
		</g>
		<g>
			<path class="st12" d="M102.836,44.165c-3.15-0.601-4.495,4.217-1.33,4.821c8.085,1.543,19.947,3.085,28.486,4.628
				c-0.433-1.804-0.942-3.576-1.525-5.317C120.278,46.92,110.055,45.542,102.836,44.165z"/>
		</g>
	</g>
	<g>
		<g>
			<g>
				<path class="st12" d="M74.087,38.854c3.225,0,3.225-5,0-5c-13.333,0,0.833,0-12.5,0c-3.225,0-3.225,5,0,5
					C61.587,38.854,60.754,38.854,74.087,38.854z"/>
			</g>
		</g>
	</g>
</g>
<g>
	<circle class="st12" cx="49.172" cy="46.576" r="6.946"/>
</g>
<g>
	<circle class="st12" cx="86.775" cy="46.576" r="6.446"/>
</g>
</svg>
