<?xml version="1.0" encoding="utf-8"?>
<!-- Generator: Adobe Illustrator 16.0.0, SVG Export Plug-In . SVG Version: 6.00 Build 0)  -->
<!DOCTYPE svg PUBLIC "-//W3C//DTD SVG 1.1//EN" "http://www.w3.org/Graphics/SVG/1.1/DTD/svg11.dtd">
<svg version="1.1" id="Layer_1" xmlns="http://www.w3.org/2000/svg" xmlns:xlink="http://www.w3.org/1999/xlink" x="0px" y="0px"
	 width="136.833px" height="136.834px" viewBox="0 0 136.833 136.834" style="enable-background:new 0 0 136.833 136.834;"
	 xml:space="preserve">
<style type="text/css">
<![CDATA[
	.st0{fill:#E22928;}
	.st1{fill:#81C241;}
	.st2{fill:#ED3533;}
	.st3{fill:#EFEFEF;}
	.st4{fill:#F0AE1D;}
	.st5{fill:#5E9A42;}
	.st6{fill:#FFC10E;}
	.st7{fill:#FFFFFF;}
	.st8{fill:#CA2027;}
	.st9{fill:#9B1C1F;}
	.st10{fill:#67AF45;}
	.st11{fill:#CCCBCB;}
	.st12{fill:#333333;}
	.st13{fill:#D22327;}
	.st14{fill:#A2D4DE;}
	.st15{fill:#75CDDE;}
]]>
</style>
<g>
	<g>
		<g>
			<circle class="st6" cx="68.416" cy="68.417" r="63.333"/>
		</g>
	</g>
	<g>
		<g>
			<path class="st12" d="M59.036,128.82c0,0.864,0,1.602,0,2.234c3.061,0.454,6.191,0.696,9.379,0.696
				c3.11,0,6.164-0.234,9.154-0.667c0-0.638,0-1.387,0-2.263C77.569,116.869,59.036,116.869,59.036,128.82z"/>
		</g>
	</g>
	<g>
		<circle class="st12" cx="49.172" cy="46.576" r="9.946"/>
	</g>
	<g>
		<circle class="st12" cx="86.775" cy="46.576" r="9.946"/>
	</g>
	<g>
		<g>
			<g>
				<path class="st12" d="M96.825,89.772c-15.842,16.124-41.335,15.997-57.045-0.24c-2.245-2.321-5.777,1.218-3.535,3.535
					c17.575,18.166,46.408,18.263,64.115,0.24C102.621,91.006,99.088,87.469,96.825,89.772L96.825,89.772z"/>
			</g>
		</g>
	</g>
</g>
</svg>
