<?xml version="1.0" encoding="utf-8"?>
<!-- Generator: Adobe Illustrator 16.0.0, SVG Export Plug-In . SVG Version: 6.00 Build 0)  -->
<!DOCTYPE svg PUBLIC "-//W3C//DTD SVG 1.1//EN" "http://www.w3.org/Graphics/SVG/1.1/DTD/svg11.dtd">
<svg version="1.1" id="Layer_1" xmlns="http://www.w3.org/2000/svg" xmlns:xlink="http://www.w3.org/1999/xlink" x="0px" y="0px"
	 width="136.833px" height="136.833px" viewBox="0 0 136.833 136.833" style="enable-background:new 0 0 136.833 136.833;"
	 xml:space="preserve">
<style type="text/css">
<![CDATA[
	.st0{fill:#E22928;}
	.st1{fill:#81C241;}
	.st2{fill:#ED3533;}
	.st3{fill:#EFEFEF;}
	.st4{fill:#F0AE1D;}
	.st5{fill:#5E9A42;}
	.st6{fill:#FFC10E;}
	.st7{fill:#FFFFFF;}
	.st8{fill:#CA2027;}
	.st9{fill:#9B1C1F;}
	.st10{fill:#67AF45;}
	.st11{fill:#CCCBCB;}
	.st12{fill:#333333;}
	.st13{fill:#D22327;}
	.st14{fill:#A2D4DE;}
	.st15{fill:#75CDDE;}
]]>
</style>
<g>
	<g>
		<g>
			<circle class="st6" cx="68.417" cy="68.417" r="63.333"/>
		</g>
	</g>
	<g>
		<circle class="st12" cx="49.173" cy="60.575" r="9.946"/>
	</g>
	<g>
		<ellipse class="st12" cx="88.912" cy="55.422" rx="9.946" ry="15.1"/>
	</g>
	<g>
		<g>
			<path class="st12" d="M57.297,32.542c-3.329,3.894-6.657,7.787-9.986,11.681c1.179,0,2.356,0,3.535,0
				c-6.719-5.392-13.438-10.784-20.157-16.176c-2.488-1.997-6.051,1.517-3.535,3.535c6.719,5.392,13.438,10.784,20.157,16.176
				c0.994,0.798,2.581,1.116,3.535,0c3.329-3.894,6.657-7.787,9.986-11.681C62.915,33.641,59.396,30.087,57.297,32.542
				L57.297,32.542z"/>
		</g>
	</g>
	<g>
		<g>
			<path class="st12" d="M80.036,38.429c3.329-3.894,6.658-7.787,9.986-11.681c-1.179,0-2.356,0-3.535,0
				c6.719,5.392,13.438,10.784,20.157,16.176c2.488,1.997,6.051-1.517,3.535-3.535c-6.719-5.392-13.438-10.784-20.157-16.176
				c-0.994-0.798-2.581-1.116-3.535,0c-3.329,3.894-6.658,7.787-9.986,11.681C74.418,37.33,77.938,40.884,80.036,38.429
				L80.036,38.429z"/>
		</g>
	</g>
	<g>
		<g>
			<path class="st12" d="M52.783,108.443c10.043,0,20.086,0,30.129,0c3.225,0,3.225-5,0-5c-10.043,0-20.086,0-30.129,0
				C49.559,103.443,49.559,108.443,52.783,108.443L52.783,108.443z"/>
		</g>
	</g>
</g>
</svg>
