<?xml version="1.0" encoding="utf-8"?>
<!-- Generator: Adobe Illustrator 16.0.0, SVG Export Plug-In . SVG Version: 6.00 Build 0)  -->
<!DOCTYPE svg PUBLIC "-//W3C//DTD SVG 1.1//EN" "http://www.w3.org/Graphics/SVG/1.1/DTD/svg11.dtd">
<svg version="1.1" id="Layer_1" xmlns="http://www.w3.org/2000/svg" xmlns:xlink="http://www.w3.org/1999/xlink" x="0px" y="0px"
	 width="136.833px" height="136.834px" viewBox="0 0 136.833 136.834" style="enable-background:new 0 0 136.833 136.834;"
	 xml:space="preserve">
<style type="text/css">
<![CDATA[
	.st0{fill:#E22928;}
	.st1{fill:#81C241;}
	.st2{fill:#ED3533;}
	.st3{fill:#EFEFEF;}
	.st4{fill:#F0AE1D;}
	.st5{fill:#5E9A42;}
	.st6{fill:#FFC10E;}
	.st7{fill:#FFFFFF;}
	.st8{fill:#CA2027;}
	.st9{fill:#9B1C1F;}
	.st10{fill:#67AF45;}
	.st11{fill:#CCCBCB;}
	.st12{fill:#333333;}
	.st13{fill:#D22327;}
	.st14{fill:#A2D4DE;}
	.st15{fill:#75CDDE;}
]]>
</style>
<g>
	<g>
		<g>
			<circle class="st6" cx="68.417" cy="68.417" r="63.333"/>
		</g>
	</g>
	<g>
		<circle class="st12" cx="49.173" cy="55.699" r="9.946"/>
	</g>
	<g>
		<circle class="st12" cx="86.776" cy="55.699" r="9.946"/>
	</g>
	<g>
		<g>
			<g>
				<path class="st12" d="M68.416,94.018c-11.053-0.213-20.95-4.542-28.635-12.484c-2.245-2.321-5.777,1.219-3.535,3.535
					c8.584,8.872,19.835,13.712,32.17,13.949C71.643,99.08,71.636,94.079,68.416,94.018L68.416,94.018z"/>
			</g>
		</g>
	</g>
	<g>
		<g>
			<g>
				<path class="st12" d="M43.353,36.03c6.636,2.119,12.374,5.718,17.191,10.744c2.234,2.332,5.766-1.209,3.535-3.535
					c-5.405-5.64-11.962-9.655-19.396-12.031C41.602,30.225,40.294,35.053,43.353,36.03L43.353,36.03z"/>
			</g>
		</g>
	</g>
	<g>
		<g>
			<g>
				<path class="st12" d="M74.875,46.398c6.155-3.301,12.643-4.939,19.626-4.956c3.224-0.008,3.225-5.008,0-5
					c-7.846,0.019-15.239,1.933-22.149,5.64C69.51,43.605,72.034,47.922,74.875,46.398L74.875,46.398z"/>
			</g>
		</g>
	</g>
</g>
</svg>
