<?xml version="1.0" encoding="utf-8"?>
<!-- Generator: Adobe Illustrator 16.0.0, SVG Export Plug-In . SVG Version: 6.00 Build 0)  -->
<!DOCTYPE svg PUBLIC "-//W3C//DTD SVG 1.1//EN" "http://www.w3.org/Graphics/SVG/1.1/DTD/svg11.dtd">
<svg version="1.1" id="Layer_1" xmlns="http://www.w3.org/2000/svg" xmlns:xlink="http://www.w3.org/1999/xlink" x="0px" y="0px"
	 width="136.833px" height="136.833px" viewBox="0 0 136.833 136.833" style="enable-background:new 0 0 136.833 136.833;"
	 xml:space="preserve">
<style type="text/css">
<![CDATA[
	.st0{fill:#E22928;}
	.st1{fill:#81C241;}
	.st2{fill:#ED3533;}
	.st3{fill:#EFEFEF;}
	.st4{fill:#F0AE1D;}
	.st5{fill:#5E9A42;}
	.st6{fill:#FFC10E;}
	.st7{fill:#FFFFFF;}
	.st8{fill:#CA2027;}
	.st9{fill:#9B1C1F;}
	.st10{fill:#67AF45;}
	.st11{fill:#CCCBCB;}
	.st12{fill:#333333;}
	.st13{fill:#D22327;}
	.st14{fill:#A2D4DE;}
	.st15{fill:#75CDDE;}
]]>
</style>
<g>
	<g>
		<g>
			<circle class="st6" cx="68.416" cy="68.417" r="63.333"/>
		</g>
	</g>
	<g>
		<circle class="st12" cx="49.172" cy="46.576" r="9.946"/>
	</g>
	<g>
		<circle class="st12" cx="86.775" cy="46.576" r="9.946"/>
	</g>
	<g>
		<g>
			<path class="st12" d="M33.226,92.37c23.087,0,46.175,0,69.262,0c3.225,0,3.225-5,0-5c-23.087,0-46.175,0-69.262,0
				C30.001,87.37,30.001,92.37,33.226,92.37L33.226,92.37z"/>
		</g>
	</g>
	<g>
		<g>
			<g>
				<path class="st12" d="M35.272,85.408c0,1.5,0,3,0,4.5c0,1.612,2.5,1.612,2.5,0c0-1.5,0-3,0-4.5
					C37.772,83.795,35.272,83.795,35.272,85.408L35.272,85.408z"/>
			</g>
		</g>
		<g>
			<g>
				<path class="st12" d="M50.772,85.408c0,1.5,0,3,0,4.5c0,1.612,2.5,1.612,2.5,0c0-1.5,0-3,0-4.5
					C53.272,83.795,50.772,83.795,50.772,85.408L50.772,85.408z"/>
			</g>
		</g>
		<g>
			<g>
				<path class="st12" d="M66.272,85.408c0,1.5,0,3,0,4.5c0,1.612,2.5,1.612,2.5,0c0-1.5,0-3,0-4.5
					C68.772,83.795,66.272,83.795,66.272,85.408L66.272,85.408z"/>
			</g>
		</g>
		<g>
			<g>
				<path class="st12" d="M81.772,85.408c0,1.5,0,3,0,4.5c0,1.612,2.5,1.612,2.5,0c0-1.5,0-3,0-4.5
					C84.272,83.795,81.772,83.795,81.772,85.408L81.772,85.408z"/>
			</g>
		</g>
	</g>
	<g>
		<g>
			<g>
				<path class="st12" d="M42.938,89.658c0,1.5,0,3,0,4.5c0,1.612,2.5,1.612,2.5,0c0-1.5,0-3,0-4.5
					C45.438,88.045,42.938,88.045,42.938,89.658L42.938,89.658z"/>
			</g>
		</g>
		<g>
			<g>
				<path class="st12" d="M58.438,89.658c0,1.5,0,3,0,4.5c0,1.612,2.5,1.612,2.5,0c0-1.5,0-3,0-4.5
					C60.938,88.045,58.438,88.045,58.438,89.658L58.438,89.658z"/>
			</g>
		</g>
		<g>
			<g>
				<path class="st12" d="M73.938,89.658c0,1.5,0,3,0,4.5c0,1.612,2.5,1.612,2.5,0c0-1.5,0-3,0-4.5
					C76.438,88.045,73.938,88.045,73.938,89.658L73.938,89.658z"/>
			</g>
		</g>
		<g>
			<g>
				<path class="st12" d="M89.438,89.658c0,1.5,0,3,0,4.5c0,1.612,2.5,1.612,2.5,0c0-1.5,0-3,0-4.5
					C91.938,88.045,89.438,88.045,89.438,89.658L89.438,89.658z"/>
			</g>
		</g>
	</g>
	<g>
		<path class="st12" d="M109.421,94.758c0,0-6.777,0-8.108,0c-1.33,0-8.058-3.992-8.058-5.102s6.653-5.102,8.058-5.102
			c1.405,0,8.108,0,8.108,0C112.238,84.555,112.238,94.758,109.421,94.758z"/>
	</g>
</g>
</svg>
