<?xml version="1.0" encoding="utf-8"?>
<!-- Generator: Adobe Illustrator 16.0.0, SVG Export Plug-In . SVG Version: 6.00 Build 0)  -->
<!DOCTYPE svg PUBLIC "-//W3C//DTD SVG 1.1//EN" "http://www.w3.org/Graphics/SVG/1.1/DTD/svg11.dtd">
<svg version="1.1" id="Layer_1" xmlns="http://www.w3.org/2000/svg" xmlns:xlink="http://www.w3.org/1999/xlink" x="0px" y="0px"
	 width="136.833px" height="136.833px" viewBox="0 0 136.833 136.833" style="enable-background:new 0 0 136.833 136.833;"
	 xml:space="preserve">
<style type="text/css">
<![CDATA[
	.st0{fill:#E22928;}
	.st1{fill:#81C241;}
	.st2{fill:#ED3533;}
	.st3{fill:#EFEFEF;}
	.st4{fill:#F0AE1D;}
	.st5{fill:#5E9A42;}
	.st6{fill:#FFC10E;}
	.st7{fill:#FFFFFF;}
	.st8{fill:#CA2027;}
	.st9{fill:#9B1C1F;}
	.st10{fill:#67AF45;}
	.st11{fill:#CCCBCB;}
	.st12{fill:#333333;}
	.st13{fill:#D22327;}
	.st14{fill:#A2D4DE;}
	.st15{fill:#75CDDE;}
]]>
</style>
<g>
	<g>
		<g>
			<circle class="st6" cx="68.417" cy="68.417" r="63.333"/>
		</g>
	</g>
	<g>
		<circle class="st12" cx="49.173" cy="60.575" r="9.946"/>
	</g>
	<g>
		<circle class="st12" cx="88.912" cy="60.575" r="9.946"/>
	</g>
	<g>
		<g>
			<path class="st12" d="M80.036,32.095c3.329-3.894,6.658-7.787,9.986-11.681c-1.179,0-2.356,0-3.535,0
				c6.719,5.392,13.438,10.784,20.157,16.176c2.488,1.997,6.051-1.517,3.535-3.535c-6.719-5.392-13.438-10.784-20.157-16.176
				c-0.994-0.798-2.581-1.116-3.535,0c-3.329,3.894-6.658,7.787-9.986,11.681C74.418,30.996,77.938,34.55,80.036,32.095
				L80.036,32.095z"/>
		</g>
	</g>
	<g>
		<g>
			<path class="st12" d="M60.848,28.56c-3.329-3.894-6.657-7.787-9.986-11.681c-0.954-1.116-2.541-0.798-3.535,0
				c-6.72,5.392-13.438,10.784-20.157,16.176c-2.516,2.018,1.047,5.532,3.535,3.535c6.719-5.392,13.438-10.784,20.157-16.176
				c-1.179,0-2.356,0-3.535,0c3.329,3.894,6.657,7.787,9.986,11.681C59.411,34.55,62.931,30.996,60.848,28.56L60.848,28.56z"/>
		</g>
	</g>
	<g>
		<g>
			<path class="st12" d="M52.819,103.812c9.576,3.027,19.151,6.056,28.727,9.084c3.084,0.975,4.393-3.854,1.33-4.822
				c-9.576-3.027-19.151-6.056-28.727-9.084C51.065,98.015,49.757,102.843,52.819,103.812L52.819,103.812z"/>
		</g>
	</g>
</g>
</svg>
