<?xml version="1.0" encoding="utf-8"?>
<!-- Generator: Adobe Illustrator 16.0.0, SVG Export Plug-In . SVG Version: 6.00 Build 0)  -->
<!DOCTYPE svg PUBLIC "-//W3C//DTD SVG 1.1//EN" "http://www.w3.org/Graphics/SVG/1.1/DTD/svg11.dtd">
<svg version="1.1" id="Layer_1" xmlns="http://www.w3.org/2000/svg" xmlns:xlink="http://www.w3.org/1999/xlink" x="0px" y="0px"
	 width="48px" height="24px" viewBox="296 228 48 24" enable-background="new 296 228 48 24" xml:space="preserve">
<path d="M344,230h-4v12h4V230z M322,241c0,1.1,0.9,2,2,2h6.311l-0.951,4.57l-0.029,0.32c0,0.409,0.17,0.789,0.439,1.06l1.061,1.05
	l6.58-6.59c0.369-0.36,0.59-0.86,0.59-1.41v-10c0-1.1-0.9-2-2-2h-9c-0.83,0-1.54,0.5-1.84,1.22l-3.02,7.05
	C322.05,238.5,322,238.74,322,239v1.91l0.01,0.01L322,241z"/>
<path d="M296,241.998h3.994V230H296V241.998z M317.99,240.92l0.01-0.016V239c0-0.256-0.057-0.5-0.141-0.725l-3.014-7.059
	C314.54,230.502,313.83,230,313,230h-9.002c-1.098,0-1.998,0.9-1.998,1.998v10c0,0.547,0.221,1.052,0.59,1.406l6.58,6.596
	l1.066-1.05c0.264-0.272,0.434-0.65,0.434-1.06l-0.031-0.318l-0.949-4.57H316c1.1,0,2-0.898,2-2.002L317.99,240.92z"/>
</svg>
