<?xml version="1.0" encoding="utf-8"?>
<!-- Generator: Adobe Illustrator 16.0.0, SVG Export Plug-In . SVG Version: 6.00 Build 0)  -->
<!DOCTYPE svg PUBLIC "-//W3C//DTD SVG 1.1//EN" "http://www.w3.org/Graphics/SVG/1.1/DTD/svg11.dtd">
<svg version="1.1" id="Layer_1" xmlns="http://www.w3.org/2000/svg" xmlns:xlink="http://www.w3.org/1999/xlink" x="0px" y="0px"
	 width="48px" height="24px" viewBox="296 228 48 24" enable-background="new 296 228 48 24" xml:space="preserve">
<g display="none">
	<title>Layer 1</title>
	<g id="svg_4" display="inline">
		<g id="svg_1" transform="matrix(2.24924 0.430668 -0.430668 2.24924 -343.115 -367.574)">
			<path id="svg_2" fill="#FFFFFF" stroke="#000000" stroke-width="3" d="M490.508,242.367c-0.069,0.209-0.063,0.185-0.126,0.289
				c0.077,0.164-0.143,0.428-0.411,0.49c-0.085,0.071-0.116,0.045-0.3,0.127c-0.466,0.121-1.066,0.025-1.434,0.002
				c-0.334-0.038-0.67-0.17-0.817-0.24c-0.264-0.128-0.432-0.252-0.559-0.488c-0.222-0.412-0.159-0.736,0.023-0.91
				c-0.214-0.248-0.324-0.646-0.258-0.939c-0.302-0.253-0.399-0.883-0.362-1.442c0.019-0.282,0.128-0.476,0.199-0.594
				c-0.069-0.503,0.008-1.009,0.19-1.365c0.126-0.246,0.386-0.545,0.651-0.544c0.265,0.001,0.866,0.238,0.931-0.221
				c0.066-0.46-0.338-1.11-0.447-1.784c-0.067-0.414,0.212-0.892,0.396-1.204c0.183-0.312,0.446-0.476,0.779-0.648
				c0.274-0.142,0.715-0.085,0.917,0.246c0.216,0.354,0.167,0.917,0.102,1.332c-0.06,0.375-0.181,0.727-0.216,1.116
				c-0.034,0.38-0.116,1.079-0.024,1.426c0.258,0.28,0.512,0.292,0.797,0.481c0.268,0.178,0.416,0.564,0.369,0.901
				c-0.033,0.238-0.253,0.392-0.074,0.646c0.213,0.303,0.35,0.754,0.098,1.009c-0.252,0.255-0.21,0.371-0.248,0.412
				c-0.037,0.041-0.042,0.144,0.059,0.432c0.164,0.466,0.217,0.505-0.08,0.822C490.553,241.837,490.798,242.307,490.508,242.367z"/>
			<path id="svg_3" fill="#FFFFFF" stroke="#000000" stroke-width="3" d="M488.238,243.276c0.367,0.023,0.968,0.119,1.434-0.002
				c-0.26,0.01-0.485-0.036-0.604-0.054c-0.262-0.041-0.553-0.137-0.77-0.233c-0.245-0.108-0.293-0.15-0.45-0.262
				c0.023,0.119,0.075,0.244,0.154,0.329c-0.266-0.093-0.838-0.329-0.999-0.599c-0.158-0.262-0.179-0.538,0.056-0.757
				c0.085-0.074,0.107-0.231-0.028-0.162c-0.047-0.068-0.162-0.302-0.192-0.461c-0.063-0.333,0.041-0.891,0.273-1.113
				c-0.151,0.066-0.361,0.33-0.44,0.479c-0.231-0.276-0.31-0.746-0.271-1.189c0.051-0.576,0.219-0.733,0.621-1.004
				c-0.243,0.039-0.355,0.134-0.45,0.243c-0.045-0.381,0.064-0.775,0.207-1.102c0.104-0.238,0.306-0.475,0.528-0.635
				c-0.265-0.001-0.525,0.298-0.651,0.544c-0.182,0.356-0.259,0.862-0.19,1.365c-0.071,0.119-0.181,0.312-0.199,0.594
				c-0.037,0.559,0.06,1.189,0.362,1.442c-0.066,0.292,0.044,0.69,0.258,0.939c-0.182,0.174-0.245,0.498-0.023,0.91
				c0.126,0.236,0.295,0.36,0.559,0.488C487.569,243.106,487.904,243.238,488.238,243.276z M490.685,240.466
				c0.038-0.041-0.004-0.156,0.248-0.412c0.252-0.255,0.115-0.706-0.098-1.009c-0.179-0.253,0.041-0.407,0.074-0.646
				c0.047-0.337-0.102-0.723-0.369-0.901c-0.285-0.189-0.539-0.202-0.797-0.481c-0.092-0.347-0.01-1.046,0.024-1.426
				c0.035-0.388,0.156-0.74,0.216-1.116c0.065-0.416,0.114-0.979-0.102-1.332c-0.202-0.331-0.644-0.389-0.917-0.246
				c-0.333,0.173-0.595,0.336-0.779,0.648c-0.185,0.312-0.464,0.79-0.396,1.204c0.109,0.674,0.513,1.324,0.447,1.784
				c0.178-0.369-0.257-1.234-0.307-1.748c-0.047-0.482,0.19-0.854,0.373-1.147c0.118-0.188,0.392-0.44,0.658-0.555
				c0.218-0.095,0.513-0.196,0.764,0.131c0.228,0.28,0.175,0.893,0.112,1.215c-0.087,0.446-0.194,0.877-0.234,1.41
				c-0.026,0.344-0.028,0.807,0.012,1.174c-0.123,0.061-0.552-0.159-0.796-0.227c-0.332-0.093-0.739-0.297-1.063-0.068
				c0.476-0.032,0.84,0.112,1.263,0.267c0.316,0.115,0.625,0.262,0.937,0.388c0.24,0.122,0.516,0.239,0.688,0.464
				c0.155,0.201,0.219,0.418,0.028,0.636c-0.254,0.291,0.066,0.65,0.227,0.893c0.215,0.325-0.13,0.567-0.269,0.784
				c-0.153,0.239-0.022,0.648,0.091,0.935c0.116,0.297-0.072,0.292-0.216,0.633c-0.083,0.197,0.098,0.458,0.003,0.65
				c0.29-0.06,0.046-0.53,0.156-0.648c0.297-0.316,0.244-0.355,0.08-0.822C490.643,240.609,490.648,240.507,490.685,240.466z
				 M489.971,243.147c0.16-0.028,0.495-0.256,0.411-0.49C490.321,242.81,489.919,242.878,489.971,243.147L489.971,243.147z
				 M488.886,241.875c0.144-0.029,0.533-0.375,0.332-0.423c-0.291,0.084-0.61,0.258-0.932,0.151
				c-0.322-0.108-0.712-0.202-1.002-0.059c0.312,0.059,0.526,0.154,0.828,0.229C488.357,241.833,488.635,241.925,488.886,241.875z
				 M487.263,241.005c-0.101-0.28,0.157-0.775,0.008-0.865c-0.065,0.268-0.361,0.538-0.124,0.788
				C487.16,240.966,487.228,241.1,487.263,241.005z M489.497,240.202c0.298-0.271,0.216-0.344,0.037-0.299
				c-0.192,0.048-0.667,0.062-0.806,0.019c-0.311-0.096-0.947-0.27-1.197-0.006c0.269-0.044,0.786,0.125,1.125,0.201
				C488.845,240.159,489.351,240.334,489.497,240.202z M487.378,239.598c-0.271-0.216-0.011-0.893-0.265-0.983
				c-0.087,0.309-0.144,0.953,0.249,1.004L487.378,239.598L487.378,239.598z M489.616,238.669c0.275-0.131,0.264-0.314-0.096-0.286
				c-0.446,0.034-0.921-0.111-1.349-0.188c-0.278-0.051-0.758-0.131-0.946,0c0.347,0.083,0.707,0.102,1.039,0.232
				C488.648,238.575,489.558,238.696,489.616,238.669z M487.417,236.946c-0.166,0.186-0.369,0.5-0.178,0.785
				C487.205,237.422,487.451,237.213,487.417,236.946z M489.389,235.761c-0.13-0.342-0.631-0.205-0.928-0.228
				c-0.231,0.252,0.212,0.143,0.344,0.177C488.979,235.676,489.271,235.981,489.389,235.761z"/>
		</g>
		<g id="layer1" transform="matrix(2.26073 -0.365554 0.365554 2.26073 -539.261 -109.698)">
			<path id="path3128" fill="#FFFFFF" stroke="#000000" stroke-width="3" d="M472.314,296.766c0.07,0.21,0.064,0.186,0.127,0.291
				c-0.076,0.163,0.145,0.429,0.414,0.493c0.085,0.071,0.117,0.046,0.301,0.129c0.466,0.123,1.068,0.031,1.437,0.009
				c0.334-0.036,0.67-0.167,0.816-0.237c0.265-0.127,0.433-0.25,0.559-0.486c0.22-0.412,0.156-0.736-0.028-0.912
				c0.214-0.248,0.323-0.646,0.255-0.939c0.301-0.252,0.396-0.883,0.357-1.443c-0.02-0.282-0.13-0.477-0.203-0.596
				c0.068-0.504-0.013-1.011-0.196-1.369c-0.127-0.246-0.389-0.547-0.655-0.547c-0.265-0.001-0.867,0.236-0.934-0.225
				c-0.068-0.461,0.334-1.111,0.44-1.785c0.066-0.414-0.216-0.894-0.402-1.208c-0.185-0.313-0.449-0.478-0.783-0.653
				c-0.274-0.144-0.717-0.089-0.918,0.242c-0.215,0.354-0.164,0.918-0.096,1.334c0.061,0.377,0.185,0.73,0.221,1.118
				c0.036,0.382,0.12,1.081,0.029,1.428c-0.257,0.28-0.512,0.29-0.796,0.479c-0.267,0.177-0.414,0.563-0.366,0.9
				c0.034,0.24,0.255,0.395,0.077,0.648c-0.212,0.302-0.348,0.752-0.094,1.009c0.254,0.257,0.212,0.372,0.25,0.414
				c0.038,0.041,0.043,0.144-0.057,0.432c-0.161,0.466-0.215,0.505,0.085,0.823C472.266,296.235,472.023,296.704,472.314,296.766z"
				/>
			<path id="path8092" fill="#FFFFFF" stroke="#000000" stroke-width="3" d="M474.593,297.688c-0.369,0.021-0.97,0.114-1.437-0.009
				c0.26,0.011,0.485-0.034,0.605-0.051c0.263-0.04,0.554-0.135,0.771-0.23c0.244-0.107,0.293-0.149,0.45-0.26
				c-0.023,0.119-0.075,0.244-0.153,0.329c0.266-0.092,0.838-0.325,0.999-0.594c0.156-0.262,0.176-0.539-0.059-0.759
				c-0.085-0.075-0.109-0.232,0.028-0.162c0.046-0.069,0.159-0.303,0.189-0.461c0.062-0.333-0.044-0.892-0.278-1.116
				c0.153,0.067,0.363,0.333,0.443,0.482c0.23-0.275,0.307-0.745,0.267-1.19c-0.054-0.577-0.223-0.735-0.626-1.009
				c0.243,0.04,0.355,0.136,0.452,0.245c0.043-0.381-0.067-0.775-0.212-1.104c-0.105-0.239-0.308-0.478-0.532-0.639
				c0.266,0.001,0.528,0.301,0.655,0.547c0.183,0.358,0.264,0.865,0.196,1.369c0.072,0.119,0.183,0.314,0.203,0.596
				c0.04,0.559-0.056,1.191-0.357,1.443c0.068,0.293-0.042,0.691-0.255,0.939c0.183,0.176,0.247,0.5,0.028,0.912
				c-0.126,0.236-0.294,0.359-0.559,0.486C475.263,297.52,474.927,297.651,474.593,297.688z M472.128,294.861
				c-0.037-0.041,0.005-0.157-0.25-0.414c-0.254-0.257-0.118-0.708,0.094-1.009c0.178-0.254-0.043-0.409-0.077-0.648
				c-0.048-0.337,0.099-0.723,0.366-0.9c0.285-0.189,0.539-0.2,0.796-0.479c0.091-0.347,0.007-1.046-0.029-1.428
				c-0.036-0.389-0.16-0.742-0.221-1.118c-0.068-0.417-0.119-0.98,0.096-1.334c0.201-0.331,0.643-0.386,0.918-0.242
				c0.334,0.175,0.598,0.34,0.783,0.653c0.186,0.314,0.467,0.793,0.402,1.208c-0.106,0.674-0.508,1.324-0.44,1.785
				c-0.18-0.371,0.252-1.236,0.301-1.75c0.045-0.483-0.194-0.857-0.378-1.151c-0.118-0.19-0.395-0.443-0.662-0.559
				c-0.218-0.095-0.514-0.198-0.765,0.128c-0.227,0.279-0.172,0.893-0.107,1.216c0.089,0.447,0.198,0.879,0.24,1.414
				c0.028,0.345,0.031,0.808-0.008,1.175c0.124,0.061,0.552-0.157,0.797-0.224c0.333-0.091,0.74-0.293,1.065-0.064
				c-0.477-0.033-0.842,0.109-1.265,0.262c-0.316,0.114-0.626,0.259-0.937,0.385c-0.239,0.121-0.515,0.237-0.687,0.461
				c-0.154,0.201-0.218,0.419-0.026,0.638c0.256,0.292-0.064,0.651-0.224,0.893c-0.214,0.325,0.132,0.568,0.274,0.787
				c0.154,0.239,0.024,0.649-0.087,0.936c-0.115,0.297,0.073,0.293,0.219,0.635c0.084,0.197-0.096,0.458-0.001,0.65
				c-0.291-0.062-0.048-0.531-0.159-0.649c-0.299-0.318-0.246-0.357-0.085-0.823C472.171,295.004,472.167,294.902,472.128,294.861z
				 M472.855,297.55c-0.161-0.029-0.497-0.259-0.414-0.493C472.502,297.21,472.906,297.281,472.855,297.55L472.855,297.55z
				 M473.938,296.28c-0.145-0.03-0.536-0.377-0.336-0.425c0.293,0.086,0.613,0.261,0.935,0.155c0.321-0.106,0.712-0.199,1.003-0.054
				c-0.313,0.058-0.526,0.152-0.829,0.226C474.467,296.241,474.19,296.332,473.938,296.28z M475.56,295.418
				c0.1-0.28-0.16-0.778-0.011-0.866c0.065,0.268,0.363,0.541,0.128,0.79C475.664,295.378,475.596,295.512,475.56,295.418z
				 M473.318,294.601c-0.3-0.273-0.218-0.345-0.038-0.299c0.193,0.049,0.669,0.065,0.808,0.023c0.312-0.094,0.948-0.266,1.2,0.001
				c-0.27-0.045-0.787,0.122-1.127,0.195C473.972,294.562,473.465,294.735,473.318,294.601z M475.438,294.008
				c0.271-0.215,0.008-0.895,0.262-0.984c0.089,0.31,0.149,0.955-0.245,1.005L475.438,294.008L475.438,294.008z M473.193,293.066
				c-0.277-0.133-0.266-0.315,0.095-0.286c0.447,0.036,0.923-0.107,1.351-0.182c0.278-0.049,0.759-0.128,0.947,0.005
				c-0.347,0.081-0.708,0.099-1.04,0.227C474.162,292.976,473.25,293.094,473.193,293.066z M475.389,291.351
				c0.167,0.186,0.372,0.501,0.182,0.787C475.603,291.83,475.357,291.617,475.389,291.351z M473.408,290.155
				c0.129-0.342,0.631-0.203,0.93-0.224c0.232,0.254-0.212,0.141-0.344,0.176C473.818,290.071,473.527,290.376,473.408,290.155z"/>
		</g>
	</g>
</g>
<path fill="none" d="M313,243h24v24h-24V243z"/>
<path d="M296,248h4v-12h-4V248z M318,237c0-1.1-0.9-2-2-2h-6.311l0.951-4.57l0.029-0.32c0-0.409-0.17-0.789-0.439-1.06L309.17,228
	l-6.58,6.59c-0.369,0.36-0.59,0.86-0.59,1.41v10c0,1.1,0.9,2,2,2h9c0.83,0,1.54-0.5,1.84-1.22l3.02-7.05
	C317.95,239.5,318,239.26,318,239v-1.91l-0.01-0.01L318,237z"/>
<path d="M344,236.002h-3.994V248H344V236.002z M322.01,237.08l-0.01,0.016V239c0,0.256,0.057,0.5,0.141,0.725l3.014,7.059
	C325.46,247.498,326.17,248,327,248h9.002c1.098,0,1.998-0.9,1.998-1.998v-10c0-0.547-0.221-1.052-0.59-1.406L330.83,228
	l-1.066,1.05c-0.264,0.272-0.434,0.65-0.434,1.06l0.031,0.318l0.949,4.57H324c-1.1,0-2,0.898-2,2.002L322.01,237.08z"/>
</svg>
