<?xml version="1.0" encoding="utf-8"?>
<!-- Generator: Adobe Illustrator 16.0.0, SVG Export Plug-In . SVG Version: 6.00 Build 0)  -->
<!DOCTYPE svg PUBLIC "-//W3C//DTD SVG 1.1//EN" "http://www.w3.org/Graphics/SVG/1.1/DTD/svg11.dtd">
<svg version="1.1" id="Layer_1" xmlns="http://www.w3.org/2000/svg" xmlns:xlink="http://www.w3.org/1999/xlink" x="0px" y="0px"
	 width="303px" height="303px" viewBox="20.5 -13.5 303 303" enable-background="new 20.5 -13.5 303 303" xml:space="preserve">
<g>
	<title>Layer 1</title>
	<g id="svg_4">
		<g id="svg_1" transform="matrix(2.24924 0.430668 -0.430668 2.24924 -343.115 -367.574)">
			<path id="svg_2" fill="#FFFFFF" stroke="#000000" stroke-width="3" d="M321.972,219.777c-0.856,2.611-0.793,2.309-1.569,3.619
				c0.956,2.043-1.785,5.343-5.136,6.126c-1.062,0.88-1.454,0.563-3.744,1.587c-5.818,1.513-13.327,0.317-17.92,0.03
				c-4.175-0.475-8.372-2.124-10.201-3.007c-3.314-1.6-5.41-3.147-6.997-6.1c-2.766-5.149-1.976-9.197,0.291-11.374
				c-2.676-3.104-4.06-8.08-3.229-11.732c-3.77-3.161-4.988-11.044-4.529-18.021c0.231-3.522,1.602-5.943,2.493-7.425
				c-0.864-6.293,0.103-12.623,2.377-17.076c1.567-3.067,4.822-6.802,8.131-6.792c3.31,0.009,10.828,2.986,11.645-2.763
				c0.818-5.749-4.228-13.885-5.587-22.302c-0.837-5.175,2.648-11.143,4.95-15.052c2.297-3.897,5.579-5.945,9.735-8.103
				c3.422-1.777,8.938-1.063,11.463,3.076c2.702,4.429,2.096,11.464,1.272,16.659c-0.744,4.696-2.264,9.094-2.701,13.945
				c-0.429,4.757-1.438,13.485-0.294,17.823c3.219,3.501,6.398,3.655,9.96,6.024c3.345,2.224,5.193,7.046,4.609,11.258
				c-0.414,2.983-3.161,4.904-0.926,8.075c2.667,3.784,4.382,9.419,1.226,12.609c-3.157,3.19-2.629,4.633-3.099,5.144
				c-0.47,0.511-0.53,1.795,0.734,5.403c2.04,5.827,2.708,6.318-1.006,10.271C322.541,213.149,325.602,219.021,321.972,219.777z"/>
			<path id="svg_3" fill="#FFFFFF" stroke="#000000" stroke-width="3" d="M293.602,231.14c4.593,0.286,12.102,1.483,17.92-0.03
				c-3.245,0.123-6.058-0.45-7.551-0.682c-3.282-0.51-6.924-1.712-9.62-2.902c-3.054-1.347-3.659-1.878-5.63-3.279
				c0.289,1.495,0.935,3.052,1.921,4.114c-3.317-1.164-10.464-4.114-12.486-7.481c-1.966-3.275-2.229-6.735,0.699-9.464
				c1.06-0.924,1.343-2.885-0.358-2.019c-0.581-0.859-2.014-3.78-2.391-5.769c-0.788-4.162,0.509-11.132,3.411-13.909
				c-1.901,0.824-4.505,4.127-5.504,5.988c-2.885-3.453-3.874-9.32-3.385-14.865c0.635-7.198,2.741-9.154,7.751-12.551
				c-3.026,0.487-4.424,1.674-5.627,3.034c-0.551-4.758,0.806-9.683,2.587-13.777c1.294-2.973,3.82-5.94,6.599-7.932
				c-3.309-0.011-6.564,3.725-8.131,6.792c-2.274,4.453-3.24,10.783-2.377,17.076c-0.892,1.482-2.262,3.904-2.493,7.425
				c-0.459,6.977,0.76,14.86,4.529,18.021c-0.831,3.652,0.554,8.628,3.229,11.732c-2.268,2.177-3.057,6.224-0.291,11.374
				c1.587,2.952,3.682,4.5,6.997,6.1C285.23,229.015,289.427,230.664,293.602,231.14z M324.192,196.006
				c0.469-0.51-0.058-1.954,3.099-5.144c3.156-3.19,1.44-8.825-1.226-12.609c-2.236-3.171,0.512-5.092,0.926-8.075
				c0.584-4.212-1.265-9.034-4.609-11.258c-3.562-2.369-6.741-2.522-9.96-6.024c-1.145-4.338-0.135-13.066,0.294-17.823
				c0.437-4.85,1.957-9.249,2.701-13.945c0.825-5.195,1.43-12.23-1.272-16.659c-2.525-4.139-8.041-4.853-11.463-3.076
				c-4.156,2.158-7.438,4.206-9.735,8.103c-2.303,3.908-5.788,9.877-4.95,15.052c1.359,8.418,6.406,16.553,5.587,22.302
				c2.229-4.624-3.212-15.434-3.84-21.852c-0.587-6.032,2.375-10.679,4.657-14.347c1.465-2.357,4.905-5.501,8.227-6.939
				c2.719-1.176,6.409-2.446,9.548,1.635c2.854,3.505,2.19,11.163,1.403,15.188c-1.091,5.58-2.422,10.96-2.928,17.633
				c-0.327,4.304-0.349,10.087,0.157,14.673c-1.541,0.762-6.897-1.993-9.952-2.844c-4.155-1.158-9.245-3.705-13.288-0.859
				c5.949-0.389,10.505,1.404,15.794,3.337c3.942,1.441,7.82,3.272,11.709,4.851c2.99,1.525,6.44,2.993,8.594,5.801
				c1.934,2.523,2.733,5.24,0.355,7.962c-3.173,3.63,0.833,8.125,2.838,11.151c2.694,4.068-1.619,7.081-3.366,9.81
				c-1.908,2.981-0.266,8.099,1.136,11.685c1.453,3.717-0.892,3.651-2.695,7.913c-1.039,2.458,1.225,5.719,0.039,8.126
				c3.63-0.755,0.569-6.628,1.948-8.096c3.714-3.953,3.046-4.445,1.006-10.271C323.662,197.801,323.722,196.518,324.192,196.006z
				 M315.266,229.522c2.002-0.348,6.183-3.204,5.136-6.126C319.644,225.312,314.618,226.164,315.266,229.522L315.266,229.522z
				 M301.703,213.62c1.802-0.363,6.668-4.68,4.158-5.285c-3.642,1.057-7.627,3.223-11.649,1.877
				c-4.016-1.345-8.898-2.521-12.52-0.731c3.899,0.741,6.58,1.926,10.352,2.864C295.092,213.103,298.561,214.253,301.703,213.62z
				 M281.415,202.751c-1.27-3.499,1.955-9.685,0.092-10.805c-0.808,3.348-4.511,6.733-1.551,9.855
				C280.12,202.26,280.97,203.934,281.415,202.751z M309.333,192.706c3.726-3.386,2.709-4.305,0.457-3.734
				c-2.394,0.608-8.329,0.774-10.07,0.24c-3.897-1.194-11.841-3.375-14.966-0.074c3.366-0.542,9.823,1.568,14.063,2.51
				C301.184,192.172,307.511,194.362,309.333,192.706z M282.861,185.168c-3.389-2.698-0.136-11.161-3.313-12.293
				c-1.088,3.863-1.809,11.912,3.109,12.557L282.861,185.168L282.861,185.168z M310.822,173.55c3.443-1.642,3.299-3.923-1.206-3.58
				c-5.57,0.424-11.508-1.386-16.859-2.357c-3.476-0.63-9.477-1.641-11.823,0.008c4.332,1.032,8.839,1.275,12.988,2.886
				C298.723,172.372,310.105,173.891,310.822,173.55z M283.335,152.016c-2.076,2.311-4.619,6.237-2.228,9.806
				C280.695,157.973,283.757,155.345,283.335,152.016z M307.99,137.196c-1.624-4.277-7.882-2.568-11.609-2.848
				c-2.892,3.157,2.656,1.78,4.307,2.221C302.871,136.134,306.515,139.953,307.99,137.196z"/>
		</g>
		<g id="layer1" transform="matrix(2.26073 -0.365554 0.365554 2.26073 -539.261 -109.698)">
			<path id="path3128" fill="#FFFFFF" stroke="#000000" stroke-width="3" d="M228.831,201.492c0.87,2.62,0.804,2.317,1.587,3.632
				c-0.947,2.042,1.812,5.359,5.174,6.16c1.067,0.887,1.46,0.571,3.759,1.607c5.836,1.544,13.358,0.382,17.958,0.116
				c4.181-0.456,8.381-2.088,10.21-2.963c3.315-1.587,5.408-3.128,6.985-6.077c2.751-5.145,1.944-9.203-0.339-11.393
				c2.67-3.098,4.036-8.075,3.188-11.736c3.763-3.149,4.952-11.038,4.463-18.029c-0.246-3.529-1.629-5.96-2.529-7.449
				c0.839-6.3-0.157-12.646-2.454-17.115c-1.583-3.079-4.86-6.836-8.176-6.842c-3.316-0.005-10.837,2.94-11.68-2.821
				c-0.844-5.763,4.179-13.887,5.506-22.312c0.817-5.18-2.699-11.174-5.024-15.099c-2.317-3.914-5.616-5.982-9.789-8.163
				c-3.435-1.796-8.96-1.108-11.474,3.027c-2.689,4.424-2.052,11.473-1.205,16.681c0.765,4.707,2.306,9.12,2.764,13.979
				c0.45,4.767,1.497,13.515,0.368,17.854c-3.209,3.493-6.395,3.631-9.955,5.987c-3.342,2.211-5.174,7.033-4.572,11.254
				c0.426,2.989,3.188,4.927,0.962,8.093c-2.658,3.778-4.353,9.413-1.177,12.623c3.177,3.21,2.653,4.653,3.126,5.168
				c0.474,0.514,0.539,1.8-0.713,5.408c-2.02,5.827-2.687,6.315,1.051,10.293C228.234,194.851,225.191,200.718,228.831,201.492z"/>
			<path id="path8092" fill="#FFFFFF" stroke="#000000" stroke-width="3" d="M257.308,213.007c-4.6,0.265-12.122,1.428-17.958-0.116
				c3.252,0.14,6.069-0.421,7.564-0.646c3.286-0.497,6.931-1.683,9.628-2.861c3.056-1.335,3.659-1.864,5.629-3.258
				c-0.285,1.497-0.925,3.052-1.908,4.111c3.319-1.15,10.468-4.071,12.48-7.433c1.957-3.271,2.206-6.735-0.739-9.483
				c-1.066-0.93-1.357-2.896,0.35-2.022c0.579-0.857,2.003-3.775,2.371-5.767c0.772-4.163-0.556-11.151-3.476-13.947
				c1.909,0.834,4.533,4.154,5.541,6.023c2.877-3.444,3.843-9.317,3.33-14.872c-0.667-7.214-2.786-9.182-7.82-12.609
				c3.034,0.502,4.44,1.698,5.652,3.065c0.531-4.764-0.848-9.703-2.65-13.811c-1.309-2.985-3.853-5.969-6.646-7.978
				c3.317,0.006,6.594,3.763,8.176,6.842c2.297,4.47,3.293,10.816,2.454,17.115c0.899,1.489,2.282,3.92,2.529,7.449
				c0.49,6.991-0.699,14.881-4.463,18.029c0.848,3.661-0.518,8.638-3.188,11.736c2.283,2.191,3.09,6.249,0.339,11.393
				c-1.577,2.949-3.67,4.49-6.985,6.077C265.689,210.919,261.489,212.552,257.308,213.007z M226.507,177.672
				c-0.472-0.514,0.051-1.958-3.126-5.168c-3.176-3.21-1.481-8.845,1.177-12.623c2.226-3.166-0.536-5.104-0.962-8.093
				c-0.602-4.221,1.23-9.043,4.572-11.254c3.56-2.356,6.746-2.494,9.955-5.987c1.129-4.339,0.081-13.087-0.368-17.854
				c-0.458-4.86-1.999-9.272-2.764-13.979c-0.847-5.207-1.484-12.256,1.205-16.681c2.514-4.135,8.039-4.823,11.474-3.027
				c4.173,2.181,7.472,4.248,9.789,8.163c2.324,3.925,5.841,9.919,5.024,15.099c-1.327,8.425-6.35,16.55-5.506,22.312
				c-2.252-4.642,3.154-15.444,3.758-21.869c0.563-6.04-2.425-10.707-4.727-14.392c-1.479-2.367-4.938-5.533-8.275-6.989
				c-2.729-1.192-6.431-2.482-9.56,1.593c-2.845,3.497-2.148,11.17-1.343,15.205c1.116,5.595,2.472,10.99,3.007,17.677
				c0.345,4.311,0.392,10.105-0.096,14.696c1.547,0.771,6.904-1.963,9.961-2.802c4.159-1.141,9.249-3.667,13.312-0.798
				c-5.963-0.417-10.522,1.356-15.812,3.268c-3.945,1.426-7.824,3.241-11.714,4.803c-2.989,1.515-6.442,2.969-8.589,5.771
				c-1.928,2.517-2.717,5.235-0.322,7.973c3.194,3.651-0.801,8.133-2.798,11.156c-2.683,4.061,1.652,7.099,3.415,9.842
				c1.924,2.993,0.3,8.112-1.091,11.699c-1.44,3.714,0.91,3.66,2.733,7.939c1.051,2.467-1.204,5.722-0.005,8.14
				c-3.641-0.774-0.598-6.641-1.986-8.119c-3.738-3.977-3.071-4.466-1.051-10.293C227.046,179.472,226.981,178.186,226.507,177.672z
				 M235.592,211.284c-2.008-0.357-6.209-3.238-5.174-6.16C231.187,207.047,236.227,207.924,235.592,211.284L235.592,211.284z
				 M249.118,195.421c-1.808-0.372-6.702-4.72-4.188-5.314c3.653,1.077,7.656,3.265,11.68,1.936
				c4.02-1.327,8.907-2.483,12.543-0.673c-3.903,0.725-6.585,1.898-10.362,2.821C255.739,194.933,252.269,196.071,249.118,195.421z
				 M269.403,184.631c1.258-3.499-2-9.711-0.139-10.823c0.824,3.356,4.549,6.765,1.595,9.879
				C270.698,184.144,269.853,185.817,269.403,184.631z M241.383,174.435c-3.748-3.408-2.731-4.325-0.473-3.741
				c2.401,0.619,8.35,0.813,10.093,0.288c3.9-1.178,11.852-3.324,14.997-0.005c-3.375-0.559-9.837,1.525-14.083,2.447
				C249.547,173.94,243.217,176.104,241.383,174.435z M267.88,167.012c3.384-2.686,0.09-11.178,3.268-12.298
				c1.107,3.876,1.862,11.94-3.063,12.564L267.88,167.012L267.88,167.012z M239.813,155.241c-3.459-1.66-3.323-3.944,1.193-3.58
				c5.584,0.451,11.527-1.334,16.885-2.28c3.48-0.615,9.49-1.599,11.848,0.064c-4.335,1.013-8.852,1.235-13.002,2.829
				C251.932,154.12,240.531,155.586,239.813,155.241z M267.266,133.803c2.089,2.324,4.655,6.268,2.274,9.833
				C269.937,139.782,266.858,137.134,267.266,133.803z M242.499,118.843c1.61-4.276,7.887-2.535,11.622-2.798
				c2.91,3.174-2.654,1.77-4.307,2.205C247.625,117.803,243.987,121.611,242.499,118.843z"/>
		</g>
	</g>
</g>
</svg>
